<svg width="26" height="26" viewBox="0 0 26 26" fill="none" xmlns="http://www.w3.org/2000/svg">
<path d="M17 13C17 15.2031 15.2031 17 13 17C10.7969 17 9 15.2031 9 13C9 10.7969 10.7969 9 13 9C15.2031 9 17 10.7969 17 13ZM19.1562 13C19.1562 9.59375 16.4063 6.84375 13 6.84375C9.59375 6.84375 6.84375 9.59375 6.84375 13C6.84375 16.4062 9.59375 19.1562 13 19.1562C16.4063 19.1562 19.1562 16.4062 19.1562 13ZM20.8438 6.59375C20.8438 5.79687 20.2031 5.15625 19.4063 5.15625C18.6094 5.15625 17.9688 5.79687 17.9688 6.59375C17.9688 7.39062 18.6094 8.03125 19.4063 8.03125C20.2031 8.03125 20.8438 7.39062 20.8438 6.59375ZM13 3.15625C14.75 3.15625 18.5 3.01562 20.0781 3.64062C20.625 3.85937 21.0313 4.125 21.4531 4.54687C21.875 4.96875 22.1406 5.375 22.3594 5.92187C22.9844 7.5 22.8438 11.25 22.8438 13C22.8438 14.75 22.9844 18.5 22.3594 20.0781C22.1406 20.625 21.875 21.0312 21.4531 21.4531C21.0313 21.875 20.625 22.1406 20.0781 22.3594C18.5 22.9844 14.75 22.8437 13 22.8437C11.25 22.8437 7.5 22.9844 5.92188 22.3594C5.375 22.1406 4.96875 21.875 4.54688 21.4531C4.125 21.0312 3.85938 20.625 3.64063 20.0781C3.01563 18.5 3.15625 14.75 3.15625 13C3.15625 11.25 3.01563 7.5 3.64063 5.92187C3.85938 5.375 4.125 4.96875 4.54688 4.54687C4.96875 4.125 5.375 3.85937 5.92188 3.64062C7.5 3.01562 11.25 3.15625 13 3.15625ZM25 13C25 11.3437 25.0156 9.70312 24.9219 8.04687C24.8281 6.125 24.3906 4.42187 22.9844 3.01562C21.5781 1.60937 19.875 1.17187 17.9531 1.07812C16.2969 0.984374 14.6563 0.999999 13 0.999999C11.3438 0.999999 9.70313 0.984374 8.04688 1.07812C6.125 1.17187 4.42188 1.60937 3.01563 3.01562C1.60938 4.42187 1.17188 6.125 1.07813 8.04687C0.984375 9.70312 1 11.3437 1 13C1 14.6562 0.984375 16.2969 1.07813 17.9531C1.17188 19.875 1.60938 21.5781 3.01563 22.9844C4.42188 24.3906 6.125 24.8281 8.04688 24.9219C9.70313 25.0156 11.3438 25 13 25C14.6563 25 16.2969 25.0156 17.9531 24.9219C19.875 24.8281 21.5781 24.3906 22.9844 22.9844C24.3906 21.5781 24.8281 19.875 24.9219 17.9531C25.0156 16.2969 25 14.6562 25 13Z" fill="#0A0A0A"/>
</svg>
