<svg width="24" height="20" viewBox="0 0 24 20" fill="none" xmlns="http://www.w3.org/2000/svg">
<path d="M12 9.052L21.352 3.2H2.648L12 9.052ZM21.352 17.2V5.552L12 11.348L2.648 5.552V17.2H21.352ZM21.352 0.848C21.9867 0.848 22.528 1.08133 22.976 1.548C23.424 2.01467 23.648 2.56533 23.648 3.2V17.2C23.648 17.8347 23.424 18.3853 22.976 18.852C22.528 19.3187 21.9867 19.552 21.352 19.552H2.648C2.01333 19.552 1.472 19.3187 1.024 18.852C0.576 18.3853 0.352 17.8347 0.352 17.2V3.2C0.352 2.56533 0.576 2.01467 1.024 1.548C1.472 1.08133 2.01333 0.848 2.648 0.848H21.352Z" fill="#0A0A0A"/>
</svg>
