<svg width="26" height="20" viewBox="0 0 26 20" fill="none" xmlns="http://www.w3.org/2000/svg">
<path d="M25.3125 2.375C24.4063 2.76562 23.4219 3.04688 22.4063 3.15625C23.4531 2.53125 24.25 1.54687 24.625 0.375C23.6563 0.953124 22.5625 1.375 21.4219 1.59375C20.5 0.609374 19.1875 -4.76837e-07 17.7344 -4.76837e-07C14.9375 -4.76837e-07 12.6875 2.26562 12.6875 5.04687C12.6875 5.4375 12.7344 5.82812 12.8125 6.20312C8.625 5.98437 4.89063 3.98437 2.40625 0.921875C1.96875 1.67187 1.71875 2.53125 1.71875 3.46875C1.71875 5.21875 2.60938 6.76562 3.96875 7.67187C3.14063 7.64062 2.35938 7.40625 1.6875 7.03125C1.6875 7.04687 1.6875 7.07812 1.6875 7.09375C1.6875 9.54687 3.42188 11.5781 5.73438 12.0469C5.3125 12.1562 4.85938 12.2187 4.40625 12.2187C4.07813 12.2187 3.76563 12.1875 3.45313 12.1406C4.09375 14.1406 5.95313 15.5937 8.17188 15.6406C6.4375 17 4.26562 17.7969 1.90625 17.7969C1.48438 17.7969 1.09375 17.7812 0.6875 17.7344C2.92188 19.1719 5.57813 20 8.4375 20C17.7188 20 22.7969 12.3125 22.7969 5.64062C22.7969 5.42187 22.7969 5.20312 22.7813 4.98437C23.7656 4.26562 24.625 3.375 25.3125 2.375Z" fill="#0A0A0A"/>
</svg>
