<svg width="30" height="20" viewBox="0 0 30 20" fill="none" xmlns="http://www.w3.org/2000/svg">
<path d="M12.1094 13.625V5.76562L19.6719 9.71875L12.1094 13.625ZM15 0.15625C9.10938 0.15625 5.20313 0.4375 5.20313 0.4375C4.65625 0.499999 3.45313 0.499999 2.39063 1.625C2.39063 1.625 1.53125 2.46875 1.28125 4.40625C0.984375 6.67187 1 8.9375 1 8.9375V11.0625C1 11.0625 0.984375 13.3281 1.28125 15.5937C1.53125 17.5156 2.39063 18.375 2.39063 18.375C3.45313 19.4844 4.85938 19.4531 5.48438 19.5625C5.48438 19.5625 7.71875 19.7812 15 19.8437C20.8906 19.8437 24.7969 19.5469 24.7969 19.5469C25.3438 19.4844 26.5469 19.4844 27.6094 18.375C27.6094 18.375 28.4688 17.5156 28.7188 15.5937C29.0156 13.3281 29 11.0625 29 11.0625V8.9375C29 8.9375 29.0156 6.67187 28.7188 4.40625C28.4688 2.46875 27.6094 1.625 27.6094 1.625C26.5469 0.499999 25.3438 0.499999 24.7969 0.4375C24.7969 0.4375 20.8906 0.15625 15 0.15625Z" fill="#0A0A0A"/>
</svg>
