<svg width="39" height="33" viewBox="0 0 39 33" fill="none" xmlns="http://www.w3.org/2000/svg">
<path fill-rule="evenodd" clip-rule="evenodd" d="M19.936 21.7188C19.8624 21.8231 19.8105 21.886 19.7701 21.9555C18.2125 24.6261 16.656 27.2973 15.0993 29.9685C14.6424 30.7523 14.1798 31.533 13.7319 32.322C13.6322 32.4974 13.5201 32.5652 13.314 32.5645C11.002 32.5574 8.69006 32.5599 6.3781 32.5599H1.24592H0.916687C0.991109 32.4219 1.0379 32.329 1.09009 32.2394C1.84755 30.94 2.60596 29.6413 3.36373 28.3422C4.60806 26.2087 5.8545 24.0765 7.09226 21.9392C7.19854 21.7556 7.31478 21.6875 7.52926 21.6878C11.5349 21.6942 15.5407 21.6926 19.5465 21.6919C19.6534 21.6919 19.7603 21.6833 19.8966 21.6773C19.8602 21.5944 19.8429 21.5416 19.8155 21.4944C18.2425 18.794 16.6685 16.0939 15.0948 13.3938C14.6296 12.5954 14.1687 11.7943 13.6959 11.0004C13.6104 10.8569 13.6151 10.7548 13.6981 10.6132C14.9302 8.51145 16.1565 6.40623 17.3835 4.30132C18.1536 2.98033 18.9221 1.6586 19.6915 0.337195C19.7586 0.222212 19.8268 0.107858 19.8867 0.00660647C19.9195 0.0020994 19.928 -0.000835434 19.9361 0.000212721C19.9438 0.00126088 19.9533 0.00461498 19.9579 0.010275C19.9839 0.0428727 20.0126 0.0743173 20.0335 0.110059C22.111 3.67285 24.188 7.23584 26.2701 10.808C24.1652 14.4189 22.064 18.0233 19.9384 21.6695C20.0998 21.679 20.2139 21.6916 20.3281 21.6917C24.283 21.6926 28.2378 21.6914 32.1928 21.6939C32.6843 21.6942 32.5722 21.6178 32.8336 22.0655C34.3964 24.7428 35.9588 27.4203 37.5207 30.0981C37.9609 30.8529 38.399 31.6087 38.8373 32.3644C38.862 32.4069 38.8811 32.4526 38.9131 32.5184C38.8448 32.5347 38.7926 32.5524 38.739 32.5582C38.6805 32.5645 38.6206 32.5599 38.5614 32.5599H26.5949C26.5611 32.5599 26.5265 32.5559 26.4934 32.5606C26.3266 32.5848 26.2304 32.5069 26.1507 32.3659C25.8611 31.8541 25.5619 31.3477 25.2658 30.8396C23.557 27.9072 21.8479 24.9746 20.1384 22.0424C20.084 21.9492 20.0241 21.8593 19.936 21.7188Z" fill="#DA291C"/>
</svg>
