<svg width="26" height="17" viewBox="0 0 26 17" fill="none" xmlns="http://www.w3.org/2000/svg">
<path fill-rule="evenodd" clip-rule="evenodd" d="M0 1.5C0 0.671573 0.671573 0 1.5 0H24.5C25.3284 0 26 0.671573 26 1.5C26 2.32843 25.3284 3 24.5 3H1.5C0.671572 3 0 2.32843 0 1.5ZM0 8.5C0 7.67157 0.671573 7 1.5 7H24.5C25.3284 7 26 7.67157 26 8.5C26 9.32843 25.3284 10 24.5 10H1.5C0.671572 10 0 9.32843 0 8.5ZM1.5 14C0.671573 14 0 14.6716 0 15.5C0 16.3284 0.671572 17 1.5 17H24.5C25.3284 17 26 16.3284 26 15.5C26 14.6716 25.3284 14 24.5 14H1.5Z" fill="#DA291C"/>
</svg>
